<svg width="14" height="15" viewBox="0 0 14 15" fill="none" xmlns="http://www.w3.org/2000/svg">
<g id="edit_20dp_5F6368_FILL0_wght400_GRAD0_opsz20 1">
<path id="Vector" d="M3.15 11.5099H3.89375L9.3625 6.04114L8.61875 5.29739L3.15 10.7661V11.5099ZM2.1 12.5599V10.3286L9.3625 3.06614C9.46944 2.95919 9.58533 2.88142 9.71017 2.8328C9.8349 2.78419 9.96615 2.75989 10.1039 2.75989C10.2416 2.75989 10.3736 2.78419 10.5 2.8328C10.6264 2.88142 10.7431 2.95919 10.85 3.06614L11.5937 3.80989C11.7007 3.91683 11.7785 4.0335 11.8271 4.15989C11.8757 4.28628 11.9 4.41529 11.9 4.54693C11.9 4.68742 11.8756 4.82129 11.8268 4.94855C11.778 5.07582 11.7003 5.1921 11.5937 5.29739L4.33125 12.5599H2.1ZM8.98406 5.67583L8.61875 5.29739L9.3625 6.04114L8.98406 5.67583Z" fill="#667085"/>
</g>
</svg>
